<svg xmlns="http://www.w3.org/2000/svg" xmlns:xlink="http://www.w3.org/1999/xlink" width="500" zoomAndPan="magnify" viewBox="0 0 375 374.999991" height="500" preserveAspectRatio="xMidYMid meet" version="1.0"><defs><g/><clipPath id="f5c2b6ed97"><path d="M 117.410156 95.046875 L 231.410156 95.046875 L 231.410156 197 L 117.410156 197 Z M 117.410156 95.046875 " clip-rule="nonzero"/></clipPath></defs><g clip-path="url(#f5c2b6ed97)"><path fill="#f8e1eb" d="M 224.824219 100.746094 C 222.726562 99.769531 220.566406 98.964844 218.34375 98.328125 C 214.941406 97.300781 211.480469 96.542969 207.960938 96.046875 C 202.757812 95.472656 187.269531 93.171875 168 99.308594 C 164.640625 100.273438 161.605469 101.863281 158.890625 104.066406 C 156.28125 106.3125 155.175781 109.007812 155.796875 112.28125 C 155.957031 113.109375 155.796875 113.875 154.835938 114.246094 C 152.976562 114.941406 151.113281 115.609375 149.253906 116.304688 C 146.230469 117.433594 143.214844 118.582031 140.1875 119.71875 C 137.402344 120.765625 139.699219 119.859375 136.917969 120.910156 C 134.039062 121.996094 131.1875 123.113281 128.292969 124.183594 C 126.648438 124.824219 124.96875 125.3125 123.332031 125.933594 C 121.925781 126.4375 120.554688 127.027344 119.21875 127.699219 C 117.710938 128.503906 116.777344 130.226562 117.933594 132.898438 C 118.800781 134.914062 122.054688 136.667969 124.34375 135.628906 C 126.335938 134.730469 128.457031 134.066406 130.519531 133.292969 L 137.847656 130.558594 C 140.738281 129.472656 138.539062 130.339844 141.429688 129.28125 C 143.660156 128.445312 145.886719 127.585938 148.09375 126.730469 C 149.710938 126.117188 151.328125 125.511719 152.945312 124.917969 C 155.046875 124.140625 157.21875 123.488281 159.234375 122.558594 C 159.570312 122.378906 159.925781 122.285156 160.304688 122.285156 C 160.683594 122.285156 161.039062 122.378906 161.375 122.558594 C 163.578125 123.515625 165.722656 124.726562 168.046875 125.308594 C 172.351562 126.433594 176.710938 127.285156 181.121094 127.859375 C 186.535156 128.53125 191.960938 128.699219 197.40625 128.363281 C 202.648438 128.101562 207.835938 127.410156 212.964844 126.296875 C 217.476562 125.25 221.875 123.992188 225.878906 121.734375 C 228.140625 120.457031 230.101562 118.882812 230.65625 116.4375 C 231.132812 114.253906 231.382812 112.046875 231.40625 109.808594 C 231.488281 105.460938 228.910156 102.574219 224.824219 100.746094 Z M 221.308594 110.734375 C 219.878906 112.175781 218.195312 113.191406 216.261719 113.792969 C 214.011719 114.613281 211.714844 115.277344 209.375 115.78125 C 206.65625 116.324219 203.875 116.617188 201.097656 116.90625 C 198.84375 117.140625 196.570312 117.203125 194.304688 117.34375 C 188.441406 117.480469 182.640625 116.925781 176.90625 115.671875 C 173.84375 114.945312 170.707031 114.136719 168.28125 112.042969 C 165.734375 109.84375 166.472656 107.871094 168.671875 106.242188 C 171.503906 104.144531 174.921875 103.164062 178.402344 102.347656 C 185.789062 100.628906 193.300781 100.394531 200.804688 100.726562 C 203.878906 100.859375 206.933594 101.394531 209.984375 101.835938 C 213.027344 102.214844 215.910156 103.117188 218.628906 104.535156 C 219.699219 105.117188 220.648438 105.851562 221.480469 106.742188 C 222.609375 107.980469 222.449219 109.484375 221.308594 110.734375 Z M 200.660156 139.324219 C 175.125 141.421875 163.40625 153.925781 163.40625 162.03125 C 163.953125 171.480469 164.390625 175.269531 164.621094 176.753906 C 164.671875 177.277344 164.730469 177.796875 164.800781 178.304688 C 165.308594 182.132812 166.074219 185.960938 166.867188 189.757812 C 167.121094 190.613281 167.601562 191.316406 168.308594 191.863281 C 170.855469 194.007812 174.152344 194.808594 177.398438 195.519531 C 182.828125 196.699219 188.371094 196.980469 195.054688 196.953125 L 202.695312 196.21875 C 207.042969 195.890625 211.214844 194.859375 215.21875 193.125 C 217.558594 192.0625 219.191406 190.542969 219.457031 187.902344 C 219.871094 183.84375 220.539062 179.8125 221.105469 175.777344 C 221.691406 171.632812 222.289062 167.484375 222.875 163.351562 C 223.703125 157.578125 224.527344 151.804688 225.351562 146.027344 C 225.777344 143.050781 226.214844 140.074219 226.664062 137.097656 C 226.726562 136.664062 226.949219 136.25 227.027344 135.820312 C 227.058594 135.574219 227.058594 135.324219 227.027344 135.074219 C 227.34375 133.738281 227.597656 132.390625 227.777344 131.03125 C 227.777344 131.03125 223.007812 137.480469 200.660156 139.324219 Z M 200.660156 139.324219 " fill-opacity="1" fill-rule="nonzero"/></g><g fill="#f8e1eb" fill-opacity="1"><g transform="translate(49.06211, 243.62575)"><g><path d="M 3.484375 -29.40625 L 10.296875 -29.40625 L 10.296875 0 L 3.484375 0 Z M 3.484375 -29.40625 "/></g></g></g><g fill="#f8e1eb" fill-opacity="1"><g transform="translate(62.838106, 243.62575)"><g><path d="M 16.765625 -22.9375 C 19.554688 -22.9375 21.8125 -22.09375 23.53125 -20.40625 C 25.257812 -18.726562 26.125 -16.238281 26.125 -12.9375 L 26.125 0 L 19.578125 0 L 19.578125 -11.921875 C 19.578125 -13.710938 19.179688 -15.050781 18.390625 -15.9375 C 17.609375 -16.820312 16.476562 -17.265625 15 -17.265625 C 13.34375 -17.265625 12.023438 -16.753906 11.046875 -15.734375 C 10.066406 -14.710938 9.578125 -13.191406 9.578125 -11.171875 L 9.578125 0 L 3.03125 0 L 3.03125 -22.59375 L 9.28125 -22.59375 L 9.28125 -19.953125 C 10.144531 -20.898438 11.222656 -21.632812 12.515625 -22.15625 C 13.804688 -22.675781 15.222656 -22.9375 16.765625 -22.9375 Z M 16.765625 -22.9375 "/></g></g></g><g fill="#f8e1eb" fill-opacity="1"><g transform="translate(91.860103, 243.62575)"><g><path d="M 17.59375 -1.09375 C 16.945312 -0.613281 16.15625 -0.253906 15.21875 -0.015625 C 14.28125 0.222656 13.296875 0.34375 12.265625 0.34375 C 9.578125 0.34375 7.5 -0.34375 6.03125 -1.71875 C 4.5625 -3.09375 3.828125 -5.109375 3.828125 -7.765625 L 3.828125 -17.046875 L 0.34375 -17.046875 L 0.34375 -22.09375 L 3.828125 -22.09375 L 3.828125 -27.59375 L 10.375 -27.59375 L 10.375 -22.09375 L 16 -22.09375 L 16 -17.046875 L 10.375 -17.046875 L 10.375 -7.859375 C 10.375 -6.898438 10.617188 -6.160156 11.109375 -5.640625 C 11.597656 -5.128906 12.289062 -4.875 13.1875 -4.875 C 14.21875 -4.875 15.097656 -5.15625 15.828125 -5.71875 Z M 17.59375 -1.09375 "/></g></g><g transform="translate(110.130102, 243.62575)"><g><path d="M 25.15625 -11.21875 C 25.15625 -11.132812 25.113281 -10.546875 25.03125 -9.453125 L 7.9375 -9.453125 C 8.25 -8.046875 8.976562 -6.9375 10.125 -6.125 C 11.269531 -5.3125 12.695312 -4.90625 14.40625 -4.90625 C 15.582031 -4.90625 16.625 -5.082031 17.53125 -5.4375 C 18.445312 -5.789062 19.296875 -6.34375 20.078125 -7.09375 L 23.5625 -3.3125 C 21.4375 -0.875 18.328125 0.34375 14.234375 0.34375 C 11.691406 0.34375 9.4375 -0.148438 7.46875 -1.140625 C 5.507812 -2.140625 4 -3.519531 2.9375 -5.28125 C 1.875 -7.050781 1.34375 -9.054688 1.34375 -11.296875 C 1.34375 -13.503906 1.867188 -15.5 2.921875 -17.28125 C 3.972656 -19.0625 5.414062 -20.445312 7.25 -21.4375 C 9.082031 -22.4375 11.128906 -22.9375 13.390625 -22.9375 C 15.609375 -22.9375 17.613281 -22.457031 19.40625 -21.5 C 21.195312 -20.550781 22.601562 -19.1875 23.625 -17.40625 C 24.644531 -15.625 25.15625 -13.5625 25.15625 -11.21875 Z M 13.4375 -17.96875 C 11.957031 -17.96875 10.710938 -17.546875 9.703125 -16.703125 C 8.691406 -15.867188 8.078125 -14.722656 7.859375 -13.265625 L 18.984375 -13.265625 C 18.753906 -14.691406 18.132812 -15.832031 17.125 -16.6875 C 16.125 -17.539062 14.894531 -17.96875 13.4375 -17.96875 Z M 13.4375 -17.96875 "/></g></g></g><g fill="#f8e1eb" fill-opacity="1"><g transform="translate(136.6321, 243.62575)"><g><path d="M 9.28125 -19.609375 C 10.0625 -20.703125 11.117188 -21.53125 12.453125 -22.09375 C 13.785156 -22.65625 15.316406 -22.9375 17.046875 -22.9375 L 17.046875 -16.890625 C 16.316406 -16.941406 15.828125 -16.96875 15.578125 -16.96875 C 13.703125 -16.96875 12.234375 -16.441406 11.171875 -15.390625 C 10.109375 -14.335938 9.578125 -12.765625 9.578125 -10.671875 L 9.578125 0 L 3.03125 0 L 3.03125 -22.59375 L 9.28125 -22.59375 Z M 9.28125 -19.609375 "/></g></g><g transform="translate(154.734099, 243.62575)"><g><path d="M 16.765625 -22.9375 C 19.554688 -22.9375 21.8125 -22.09375 23.53125 -20.40625 C 25.257812 -18.726562 26.125 -16.238281 26.125 -12.9375 L 26.125 0 L 19.578125 0 L 19.578125 -11.921875 C 19.578125 -13.710938 19.179688 -15.050781 18.390625 -15.9375 C 17.609375 -16.820312 16.476562 -17.265625 15 -17.265625 C 13.34375 -17.265625 12.023438 -16.753906 11.046875 -15.734375 C 10.066406 -14.710938 9.578125 -13.191406 9.578125 -11.171875 L 9.578125 0 L 3.03125 0 L 3.03125 -22.59375 L 9.28125 -22.59375 L 9.28125 -19.953125 C 10.144531 -20.898438 11.222656 -21.632812 12.515625 -22.15625 C 13.804688 -22.675781 15.222656 -22.9375 16.765625 -22.9375 Z M 16.765625 -22.9375 "/></g></g></g><g fill="#f8e1eb" fill-opacity="1"><g transform="translate(183.756097, 243.62575)"><g><path d="M 10.296875 -23.9375 L 10.296875 -16.171875 L 23.890625 -16.171875 L 23.890625 -10.703125 L 10.296875 -10.703125 L 10.296875 0 L 3.484375 0 L 3.484375 -29.40625 L 25.703125 -29.40625 L 25.703125 -23.9375 Z M 10.296875 -23.9375 "/></g></g></g><g fill="#f8e1eb" fill-opacity="1"><g transform="translate(210.594093, 243.62575)"><g><path d="M 3.03125 -22.59375 L 9.578125 -22.59375 L 9.578125 0 L 3.03125 0 Z M 6.3125 -25.75 C 5.101562 -25.75 4.117188 -26.097656 3.359375 -26.796875 C 2.609375 -27.492188 2.234375 -28.363281 2.234375 -29.40625 C 2.234375 -30.4375 2.609375 -31.300781 3.359375 -32 C 4.117188 -32.695312 5.101562 -33.046875 6.3125 -33.046875 C 7.507812 -33.046875 8.484375 -32.707031 9.234375 -32.03125 C 9.992188 -31.363281 10.375 -30.53125 10.375 -29.53125 C 10.375 -28.4375 9.992188 -27.53125 9.234375 -26.8125 C 8.484375 -26.101562 7.507812 -25.75 6.3125 -25.75 Z M 6.3125 -25.75 "/></g></g></g><g fill="#f8e1eb" fill-opacity="1"><g transform="translate(223.236095, 243.62575)"><g><path d="M 16.765625 -22.9375 C 19.554688 -22.9375 21.8125 -22.09375 23.53125 -20.40625 C 25.257812 -18.726562 26.125 -16.238281 26.125 -12.9375 L 26.125 0 L 19.578125 0 L 19.578125 -11.921875 C 19.578125 -13.710938 19.179688 -15.050781 18.390625 -15.9375 C 17.609375 -16.820312 16.476562 -17.265625 15 -17.265625 C 13.34375 -17.265625 12.023438 -16.753906 11.046875 -15.734375 C 10.066406 -14.710938 9.578125 -13.191406 9.578125 -11.171875 L 9.578125 0 L 3.03125 0 L 3.03125 -22.59375 L 9.28125 -22.59375 L 9.28125 -19.953125 C 10.144531 -20.898438 11.222656 -21.632812 12.515625 -22.15625 C 13.804688 -22.675781 15.222656 -22.9375 16.765625 -22.9375 Z M 16.765625 -22.9375 "/></g></g></g><g fill="#f8e1eb" fill-opacity="1"><g transform="translate(252.258081, 243.62575)"><g><path d="M 26.046875 -31.15625 L 26.046875 0 L 19.78125 0 L 19.78125 -2.609375 C 18.15625 -0.640625 15.800781 0.34375 12.71875 0.34375 C 10.59375 0.34375 8.671875 -0.128906 6.953125 -1.078125 C 5.234375 -2.035156 3.878906 -3.394531 2.890625 -5.15625 C 1.910156 -6.925781 1.421875 -8.972656 1.421875 -11.296875 C 1.421875 -13.617188 1.910156 -15.660156 2.890625 -17.421875 C 3.878906 -19.191406 5.234375 -20.550781 6.953125 -21.5 C 8.671875 -22.457031 10.59375 -22.9375 12.71875 -22.9375 C 15.601562 -22.9375 17.859375 -22.023438 19.484375 -20.203125 L 19.484375 -31.15625 Z M 13.859375 -5.046875 C 15.515625 -5.046875 16.882812 -5.609375 17.96875 -6.734375 C 19.0625 -7.867188 19.609375 -9.390625 19.609375 -11.296875 C 19.609375 -13.203125 19.0625 -14.722656 17.96875 -15.859375 C 16.882812 -16.992188 15.515625 -17.5625 13.859375 -17.5625 C 12.179688 -17.5625 10.796875 -16.992188 9.703125 -15.859375 C 8.609375 -14.722656 8.0625 -13.203125 8.0625 -11.296875 C 8.0625 -9.390625 8.609375 -7.867188 9.703125 -6.734375 C 10.796875 -5.609375 12.179688 -5.046875 13.859375 -5.046875 Z M 13.859375 -5.046875 "/></g></g></g><g fill="#f8e1eb" fill-opacity="1"><g transform="translate(281.32209, 243.62575)"><g><path d="M 25.15625 -11.21875 C 25.15625 -11.132812 25.113281 -10.546875 25.03125 -9.453125 L 7.9375 -9.453125 C 8.25 -8.046875 8.976562 -6.9375 10.125 -6.125 C 11.269531 -5.3125 12.695312 -4.90625 14.40625 -4.90625 C 15.582031 -4.90625 16.625 -5.082031 17.53125 -5.4375 C 18.445312 -5.789062 19.296875 -6.34375 20.078125 -7.09375 L 23.5625 -3.3125 C 21.4375 -0.875 18.328125 0.34375 14.234375 0.34375 C 11.691406 0.34375 9.4375 -0.148438 7.46875 -1.140625 C 5.507812 -2.140625 4 -3.519531 2.9375 -5.28125 C 1.875 -7.050781 1.34375 -9.054688 1.34375 -11.296875 C 1.34375 -13.503906 1.867188 -15.5 2.921875 -17.28125 C 3.972656 -19.0625 5.414062 -20.445312 7.25 -21.4375 C 9.082031 -22.4375 11.128906 -22.9375 13.390625 -22.9375 C 15.609375 -22.9375 17.613281 -22.457031 19.40625 -21.5 C 21.195312 -20.550781 22.601562 -19.1875 23.625 -17.40625 C 24.644531 -15.625 25.15625 -13.5625 25.15625 -11.21875 Z M 13.4375 -17.96875 C 11.957031 -17.96875 10.710938 -17.546875 9.703125 -16.703125 C 8.691406 -15.867188 8.078125 -14.722656 7.859375 -13.265625 L 18.984375 -13.265625 C 18.753906 -14.691406 18.132812 -15.832031 17.125 -16.6875 C 16.125 -17.539062 14.894531 -17.96875 13.4375 -17.96875 Z M 13.4375 -17.96875 "/></g></g></g><g fill="#f8e1eb" fill-opacity="1"><g transform="translate(307.824087, 243.62575)"><g><path d="M 9.28125 -19.609375 C 10.0625 -20.703125 11.117188 -21.53125 12.453125 -22.09375 C 13.785156 -22.65625 15.316406 -22.9375 17.046875 -22.9375 L 17.046875 -16.890625 C 16.316406 -16.941406 15.828125 -16.96875 15.578125 -16.96875 C 13.703125 -16.96875 12.234375 -16.441406 11.171875 -15.390625 C 10.109375 -14.335938 9.578125 -12.765625 9.578125 -10.671875 L 9.578125 0 L 3.03125 0 L 3.03125 -22.59375 L 9.28125 -22.59375 Z M 9.28125 -19.609375 "/></g></g></g></svg>