<svg xmlns="http://www.w3.org/2000/svg" xmlns:xlink="http://www.w3.org/1999/xlink" width="500" zoomAndPan="magnify" viewBox="0 0 375 374.999991" height="500" preserveAspectRatio="xMidYMid meet" version="1.0"><defs><g/><clipPath id="1412c2260f"><path d="M 117.410156 95.046875 L 231.410156 95.046875 L 231.410156 197 L 117.410156 197 Z M 117.410156 95.046875 " clip-rule="nonzero"/></clipPath></defs><g clip-path="url(#1412c2260f)"><path fill="#3028af" d="M 224.800781 100.730469 C 222.703125 99.757812 220.542969 98.957031 218.320312 98.320312 C 214.921875 97.296875 211.460938 96.539062 207.941406 96.046875 C 202.742188 95.472656 187.257812 93.175781 167.992188 99.296875 C 164.632812 100.261719 161.597656 101.84375 158.882812 104.046875 C 156.273438 106.285156 155.167969 108.972656 155.789062 112.238281 C 155.949219 113.066406 155.789062 113.828125 154.828125 114.199219 C 152.972656 114.890625 151.105469 115.558594 149.246094 116.253906 C 146.222656 117.378906 143.207031 118.527344 140.183594 119.660156 C 137.398438 120.703125 139.695312 119.800781 136.914062 120.847656 C 134.035156 121.929688 131.183594 123.042969 128.289062 124.113281 C 126.648438 124.75 124.96875 125.242188 123.332031 125.859375 C 121.925781 126.363281 120.554688 126.953125 119.21875 127.621094 C 117.710938 128.421875 116.777344 130.140625 117.933594 132.808594 C 118.800781 134.820312 122.050781 136.570312 124.34375 135.53125 C 126.335938 134.632812 128.453125 133.972656 130.515625 133.203125 L 137.84375 130.472656 C 140.730469 129.390625 138.535156 130.253906 141.425781 129.199219 C 143.652344 128.367188 145.878906 127.507812 148.089844 126.652344 C 149.707031 126.042969 151.324219 125.441406 152.9375 124.847656 C 155.039062 124.070312 157.210938 123.421875 159.226562 122.492188 C 159.5625 122.3125 159.917969 122.222656 160.296875 122.222656 C 160.675781 122.222656 161.03125 122.3125 161.367188 122.492188 C 163.566406 123.445312 165.710938 124.65625 168.035156 125.234375 C 172.339844 126.355469 176.699219 127.207031 181.109375 127.78125 C 186.519531 128.453125 191.945312 128.621094 197.390625 128.28125 C 202.628906 128.019531 207.816406 127.332031 212.945312 126.21875 C 217.457031 125.175781 221.855469 123.921875 225.859375 121.671875 C 228.117188 120.398438 230.078125 118.824219 230.632812 116.386719 C 231.109375 114.210938 231.359375 112.003906 231.382812 109.773438 C 231.464844 105.433594 228.886719 102.558594 224.800781 100.730469 Z M 221.289062 110.699219 C 219.859375 112.132812 218.175781 113.148438 216.242188 113.746094 C 213.992188 114.566406 211.695312 115.226562 209.355469 115.730469 C 206.636719 116.273438 203.855469 116.566406 201.082031 116.851562 C 198.828125 117.085938 196.554688 117.152344 194.289062 117.292969 C 188.425781 117.429688 182.628906 116.871094 176.894531 115.625 C 173.832031 114.898438 170.695312 114.089844 168.269531 112.003906 C 165.726562 109.804688 166.464844 107.839844 168.660156 106.21875 C 171.492188 104.121094 174.910156 103.144531 178.390625 102.328125 C 185.773438 100.617188 193.285156 100.378906 200.789062 100.710938 C 203.863281 100.84375 206.917969 101.378906 209.964844 101.820312 C 213.007812 102.199219 215.890625 103.097656 218.609375 104.511719 C 219.675781 105.09375 220.628906 105.824219 221.460938 106.714844 C 222.585938 107.949219 222.425781 109.449219 221.289062 110.699219 Z M 200.640625 139.21875 C 175.113281 141.3125 163.394531 153.785156 163.394531 161.867188 C 163.945312 171.292969 164.382812 175.074219 164.613281 176.558594 C 164.664062 177.078125 164.71875 177.59375 164.789062 178.105469 C 165.300781 181.921875 166.0625 185.742188 166.859375 189.527344 C 167.109375 190.382812 167.589844 191.085938 168.296875 191.628906 C 170.84375 193.769531 174.140625 194.570312 177.386719 195.277344 C 182.8125 196.453125 188.359375 196.734375 195.039062 196.707031 L 202.679688 195.976562 C 207.023438 195.648438 211.195312 194.621094 215.195312 192.890625 C 217.539062 191.828125 219.167969 190.3125 219.4375 187.675781 C 219.851562 183.628906 220.519531 179.605469 221.085938 175.585938 C 221.671875 171.445312 222.269531 167.308594 222.855469 163.1875 C 223.679688 157.429688 224.507812 151.667969 225.328125 145.90625 C 225.753906 142.9375 226.191406 139.964844 226.640625 136.996094 C 226.703125 136.5625 226.925781 136.148438 227.003906 135.722656 C 227.035156 135.476562 227.035156 135.226562 227.003906 134.976562 C 227.324219 133.644531 227.574219 132.300781 227.753906 130.941406 C 227.753906 130.941406 222.988281 137.378906 200.640625 139.21875 Z M 200.640625 139.21875 " fill-opacity="1" fill-rule="nonzero"/></g><g fill="#3028af" fill-opacity="1"><g transform="translate(49.06211, 243.62575)"><g><path d="M 3.484375 -29.40625 L 10.296875 -29.40625 L 10.296875 0 L 3.484375 0 Z M 3.484375 -29.40625 "/></g></g></g><g fill="#3028af" fill-opacity="1"><g transform="translate(62.838106, 243.62575)"><g><path d="M 16.765625 -22.9375 C 19.554688 -22.9375 21.8125 -22.09375 23.53125 -20.40625 C 25.257812 -18.726562 26.125 -16.238281 26.125 -12.9375 L 26.125 0 L 19.578125 0 L 19.578125 -11.921875 C 19.578125 -13.710938 19.179688 -15.050781 18.390625 -15.9375 C 17.609375 -16.820312 16.476562 -17.265625 15 -17.265625 C 13.34375 -17.265625 12.023438 -16.753906 11.046875 -15.734375 C 10.066406 -14.710938 9.578125 -13.191406 9.578125 -11.171875 L 9.578125 0 L 3.03125 0 L 3.03125 -22.59375 L 9.28125 -22.59375 L 9.28125 -19.953125 C 10.144531 -20.898438 11.222656 -21.632812 12.515625 -22.15625 C 13.804688 -22.675781 15.222656 -22.9375 16.765625 -22.9375 Z M 16.765625 -22.9375 "/></g></g></g><g fill="#3028af" fill-opacity="1"><g transform="translate(91.860103, 243.62575)"><g><path d="M 17.59375 -1.09375 C 16.945312 -0.613281 16.15625 -0.253906 15.21875 -0.015625 C 14.28125 0.222656 13.296875 0.34375 12.265625 0.34375 C 9.578125 0.34375 7.5 -0.34375 6.03125 -1.71875 C 4.5625 -3.09375 3.828125 -5.109375 3.828125 -7.765625 L 3.828125 -17.046875 L 0.34375 -17.046875 L 0.34375 -22.09375 L 3.828125 -22.09375 L 3.828125 -27.59375 L 10.375 -27.59375 L 10.375 -22.09375 L 16 -22.09375 L 16 -17.046875 L 10.375 -17.046875 L 10.375 -7.859375 C 10.375 -6.898438 10.617188 -6.160156 11.109375 -5.640625 C 11.597656 -5.128906 12.289062 -4.875 13.1875 -4.875 C 14.21875 -4.875 15.097656 -5.15625 15.828125 -5.71875 Z M 17.59375 -1.09375 "/></g></g><g transform="translate(110.130102, 243.62575)"><g><path d="M 25.15625 -11.21875 C 25.15625 -11.132812 25.113281 -10.546875 25.03125 -9.453125 L 7.9375 -9.453125 C 8.25 -8.046875 8.976562 -6.9375 10.125 -6.125 C 11.269531 -5.3125 12.695312 -4.90625 14.40625 -4.90625 C 15.582031 -4.90625 16.625 -5.082031 17.53125 -5.4375 C 18.445312 -5.789062 19.296875 -6.34375 20.078125 -7.09375 L 23.5625 -3.3125 C 21.4375 -0.875 18.328125 0.34375 14.234375 0.34375 C 11.691406 0.34375 9.4375 -0.148438 7.46875 -1.140625 C 5.507812 -2.140625 4 -3.519531 2.9375 -5.28125 C 1.875 -7.050781 1.34375 -9.054688 1.34375 -11.296875 C 1.34375 -13.503906 1.867188 -15.5 2.921875 -17.28125 C 3.972656 -19.0625 5.414062 -20.445312 7.25 -21.4375 C 9.082031 -22.4375 11.128906 -22.9375 13.390625 -22.9375 C 15.609375 -22.9375 17.613281 -22.457031 19.40625 -21.5 C 21.195312 -20.550781 22.601562 -19.1875 23.625 -17.40625 C 24.644531 -15.625 25.15625 -13.5625 25.15625 -11.21875 Z M 13.4375 -17.96875 C 11.957031 -17.96875 10.710938 -17.546875 9.703125 -16.703125 C 8.691406 -15.867188 8.078125 -14.722656 7.859375 -13.265625 L 18.984375 -13.265625 C 18.753906 -14.691406 18.132812 -15.832031 17.125 -16.6875 C 16.125 -17.539062 14.894531 -17.96875 13.4375 -17.96875 Z M 13.4375 -17.96875 "/></g></g></g><g fill="#3028af" fill-opacity="1"><g transform="translate(136.6321, 243.62575)"><g><path d="M 9.28125 -19.609375 C 10.0625 -20.703125 11.117188 -21.53125 12.453125 -22.09375 C 13.785156 -22.65625 15.316406 -22.9375 17.046875 -22.9375 L 17.046875 -16.890625 C 16.316406 -16.941406 15.828125 -16.96875 15.578125 -16.96875 C 13.703125 -16.96875 12.234375 -16.441406 11.171875 -15.390625 C 10.109375 -14.335938 9.578125 -12.765625 9.578125 -10.671875 L 9.578125 0 L 3.03125 0 L 3.03125 -22.59375 L 9.28125 -22.59375 Z M 9.28125 -19.609375 "/></g></g><g transform="translate(154.734099, 243.62575)"><g><path d="M 16.765625 -22.9375 C 19.554688 -22.9375 21.8125 -22.09375 23.53125 -20.40625 C 25.257812 -18.726562 26.125 -16.238281 26.125 -12.9375 L 26.125 0 L 19.578125 0 L 19.578125 -11.921875 C 19.578125 -13.710938 19.179688 -15.050781 18.390625 -15.9375 C 17.609375 -16.820312 16.476562 -17.265625 15 -17.265625 C 13.34375 -17.265625 12.023438 -16.753906 11.046875 -15.734375 C 10.066406 -14.710938 9.578125 -13.191406 9.578125 -11.171875 L 9.578125 0 L 3.03125 0 L 3.03125 -22.59375 L 9.28125 -22.59375 L 9.28125 -19.953125 C 10.144531 -20.898438 11.222656 -21.632812 12.515625 -22.15625 C 13.804688 -22.675781 15.222656 -22.9375 16.765625 -22.9375 Z M 16.765625 -22.9375 "/></g></g></g><g fill="#3028af" fill-opacity="1"><g transform="translate(183.756097, 243.62575)"><g><path d="M 10.296875 -23.9375 L 10.296875 -16.171875 L 23.890625 -16.171875 L 23.890625 -10.703125 L 10.296875 -10.703125 L 10.296875 0 L 3.484375 0 L 3.484375 -29.40625 L 25.703125 -29.40625 L 25.703125 -23.9375 Z M 10.296875 -23.9375 "/></g></g></g><g fill="#3028af" fill-opacity="1"><g transform="translate(210.594093, 243.62575)"><g><path d="M 3.03125 -22.59375 L 9.578125 -22.59375 L 9.578125 0 L 3.03125 0 Z M 6.3125 -25.75 C 5.101562 -25.75 4.117188 -26.097656 3.359375 -26.796875 C 2.609375 -27.492188 2.234375 -28.363281 2.234375 -29.40625 C 2.234375 -30.4375 2.609375 -31.300781 3.359375 -32 C 4.117188 -32.695312 5.101562 -33.046875 6.3125 -33.046875 C 7.507812 -33.046875 8.484375 -32.707031 9.234375 -32.03125 C 9.992188 -31.363281 10.375 -30.53125 10.375 -29.53125 C 10.375 -28.4375 9.992188 -27.53125 9.234375 -26.8125 C 8.484375 -26.101562 7.507812 -25.75 6.3125 -25.75 Z M 6.3125 -25.75 "/></g></g></g><g fill="#3028af" fill-opacity="1"><g transform="translate(223.236095, 243.62575)"><g><path d="M 16.765625 -22.9375 C 19.554688 -22.9375 21.8125 -22.09375 23.53125 -20.40625 C 25.257812 -18.726562 26.125 -16.238281 26.125 -12.9375 L 26.125 0 L 19.578125 0 L 19.578125 -11.921875 C 19.578125 -13.710938 19.179688 -15.050781 18.390625 -15.9375 C 17.609375 -16.820312 16.476562 -17.265625 15 -17.265625 C 13.34375 -17.265625 12.023438 -16.753906 11.046875 -15.734375 C 10.066406 -14.710938 9.578125 -13.191406 9.578125 -11.171875 L 9.578125 0 L 3.03125 0 L 3.03125 -22.59375 L 9.28125 -22.59375 L 9.28125 -19.953125 C 10.144531 -20.898438 11.222656 -21.632812 12.515625 -22.15625 C 13.804688 -22.675781 15.222656 -22.9375 16.765625 -22.9375 Z M 16.765625 -22.9375 "/></g></g></g><g fill="#3028af" fill-opacity="1"><g transform="translate(252.258081, 243.62575)"><g><path d="M 26.046875 -31.15625 L 26.046875 0 L 19.78125 0 L 19.78125 -2.609375 C 18.15625 -0.640625 15.800781 0.34375 12.71875 0.34375 C 10.59375 0.34375 8.671875 -0.128906 6.953125 -1.078125 C 5.234375 -2.035156 3.878906 -3.394531 2.890625 -5.15625 C 1.910156 -6.925781 1.421875 -8.972656 1.421875 -11.296875 C 1.421875 -13.617188 1.910156 -15.660156 2.890625 -17.421875 C 3.878906 -19.191406 5.234375 -20.550781 6.953125 -21.5 C 8.671875 -22.457031 10.59375 -22.9375 12.71875 -22.9375 C 15.601562 -22.9375 17.859375 -22.023438 19.484375 -20.203125 L 19.484375 -31.15625 Z M 13.859375 -5.046875 C 15.515625 -5.046875 16.882812 -5.609375 17.96875 -6.734375 C 19.0625 -7.867188 19.609375 -9.390625 19.609375 -11.296875 C 19.609375 -13.203125 19.0625 -14.722656 17.96875 -15.859375 C 16.882812 -16.992188 15.515625 -17.5625 13.859375 -17.5625 C 12.179688 -17.5625 10.796875 -16.992188 9.703125 -15.859375 C 8.609375 -14.722656 8.0625 -13.203125 8.0625 -11.296875 C 8.0625 -9.390625 8.609375 -7.867188 9.703125 -6.734375 C 10.796875 -5.609375 12.179688 -5.046875 13.859375 -5.046875 Z M 13.859375 -5.046875 "/></g></g></g><g fill="#3028af" fill-opacity="1"><g transform="translate(281.32209, 243.62575)"><g><path d="M 25.15625 -11.21875 C 25.15625 -11.132812 25.113281 -10.546875 25.03125 -9.453125 L 7.9375 -9.453125 C 8.25 -8.046875 8.976562 -6.9375 10.125 -6.125 C 11.269531 -5.3125 12.695312 -4.90625 14.40625 -4.90625 C 15.582031 -4.90625 16.625 -5.082031 17.53125 -5.4375 C 18.445312 -5.789062 19.296875 -6.34375 20.078125 -7.09375 L 23.5625 -3.3125 C 21.4375 -0.875 18.328125 0.34375 14.234375 0.34375 C 11.691406 0.34375 9.4375 -0.148438 7.46875 -1.140625 C 5.507812 -2.140625 4 -3.519531 2.9375 -5.28125 C 1.875 -7.050781 1.34375 -9.054688 1.34375 -11.296875 C 1.34375 -13.503906 1.867188 -15.5 2.921875 -17.28125 C 3.972656 -19.0625 5.414062 -20.445312 7.25 -21.4375 C 9.082031 -22.4375 11.128906 -22.9375 13.390625 -22.9375 C 15.609375 -22.9375 17.613281 -22.457031 19.40625 -21.5 C 21.195312 -20.550781 22.601562 -19.1875 23.625 -17.40625 C 24.644531 -15.625 25.15625 -13.5625 25.15625 -11.21875 Z M 13.4375 -17.96875 C 11.957031 -17.96875 10.710938 -17.546875 9.703125 -16.703125 C 8.691406 -15.867188 8.078125 -14.722656 7.859375 -13.265625 L 18.984375 -13.265625 C 18.753906 -14.691406 18.132812 -15.832031 17.125 -16.6875 C 16.125 -17.539062 14.894531 -17.96875 13.4375 -17.96875 Z M 13.4375 -17.96875 "/></g></g></g><g fill="#3028af" fill-opacity="1"><g transform="translate(307.824087, 243.62575)"><g><path d="M 9.28125 -19.609375 C 10.0625 -20.703125 11.117188 -21.53125 12.453125 -22.09375 C 13.785156 -22.65625 15.316406 -22.9375 17.046875 -22.9375 L 17.046875 -16.890625 C 16.316406 -16.941406 15.828125 -16.96875 15.578125 -16.96875 C 13.703125 -16.96875 12.234375 -16.441406 11.171875 -15.390625 C 10.109375 -14.335938 9.578125 -12.765625 9.578125 -10.671875 L 9.578125 0 L 3.03125 0 L 3.03125 -22.59375 L 9.28125 -22.59375 Z M 9.28125 -19.609375 "/></g></g></g></svg>